{"title":"The Spirit 2008 720p BRRip x264 Feel-Free","uid":6161662,"size":2309135616,"categoryP":"video","categoryS":"hd___movies","magnet":"?xt=urn:btih:d49a07b8cff39c7427fb8e8980aea8d6671d06b8&amp;dn=The+Spirit+2008+720p+BRRip+x264+Feel-Free&amp;tr=udp%3A%2F%2Ftracker.openbittorrent.com%3A80&amp;tr=udp%3A%2F%2Fopen.demonii.com%3A1337&amp;tr=udp%3A%2F%2Ftracker.coppersurfer.tk%3A6969&amp;tr=udp%3A%2F%2Fexodus.desync.com%3A6969","seeders":0,"leechers":2,"uploader":"neon","files":-1,"time":1297239234,"description":"Genre:Action | Crime | Fantasy\nLanguage:English\n &lt;a href=&quot; http://www.imdb.com/title/tt0831887/&quot; rel=&quot;nofollow&quot; target=&quot;_NEW&quot;&gt; http://www.imdb.com/title/tt0831887/&lt;/a&gt;\nSource:1080p Blu-ray AVC\nSubtitles:Romana\n\nFormat : MPEG-4\nFormat profile : Base Media\nCodec ID : isom\nFile size : 2.15 GiB\nDuration : 1h 42mn\nOverall bit rate : 2 995 Kbps\n\nVideo\nFormat settings, CABAC : Yes\nFormat settings, ReFrames : 3 frames\nCodec ID : avc1\nCodec ID/Info : Advanced Video Coding\nDuration : 1h 42mn\nBit rate mode : Variable\nBit rate : 2 546 Kbps\nMaximum bit rate : 18.2 Mbps\nWidth : 1 280 pixels\nHeight : 528 pixels\nDisplay aspect ratio : 2.40:1\nFrame rate mode : Constant\nFrame rate : 23.976 fps\nColor space : YUV\nChroma subsampling : 4:2:0\nBit depth : 8 bits\nScan type : Progressive\nBits/(Pixel*Frame) : 0.157\nStream size : 1.83 GiB (85%)\nWriting library : x264\n\nAudio\nID : 2\nFormat : AAC\nFormat/Info : Advanced Audio Codec\nFormat version : Version 4\nFormat profile : LC\nFormat settings, SBR : No\nCodec ID : 40\nDuration : 1h 42mn\nBit rate mode : Variable\nBit rate : 440 Kbps\nMaximum bit rate : 550 Kbps\nChannel(s) : 6 channels\nChannel positions : Front: L C R, Side: L R, LFE\nSampling rate : 48.0 KHz\nStream size : 323 MiB (15%)\n\n\nPlot:\nRookie cop Denny Colt returns from the beyond as The Spirit, a hero whose mission is to fight against the bad forces in Central City\n","torrent":{"xt":"urn:btih:d49a07b8cff39c7427fb8e8980aea8d6671d06b8","amp;dn":"The+Spirit+2008+720p+BRRip+x264+Feel-Free","amp;tr":["udp%3A%2F%2Ftracker.openbittorrent.com%3A80","udp%3A%2F%2Fopen.demonii.com%3A1337","udp%3A%2F%2Ftracker.coppersurfer.tk%3A6969","udp%3A%2F%2Fexodus.desync.com%3A6969"],"infoHash":"d49a07b8cff39c7427fb8e8980aea8d6671d06b8","infoHashBuffer":{"type":"Buffer","data":[212,154,7,184,207,243,156,116,39,251,142,137,128,174,168,214,103,29,6,184]},"announce":[],"urlList":[]}}